PathFileType	4	(X/Y/Z)	C:/Users/opensim2020/Desktop/walking_exp_matlab/subject03_walking10_straight_04.trc	
DataRate	CameraRate	NumFrames	NumMarkers	Units	OrigDataRate	OrigDataStartFrame	OrigNumFrames	
100.00	100.00	9	45	mm	100.00	3982	317	
Frame#	Time	LFHD			RFHD			LBHD			RBHD			C7			T10			CLAV			STRN			RBAK			LSHO			LUPA			LELB			LFRM			LWRA			LWRB			LFIN			RSHO			RUPA			RELB			RFRM			RWRA			RWRB			RFIN			LASI			RASI			LPSI			RPSI			LTHI			LKNE			LTIB			LANK			LHEE			LTOE			RTHI			RKNE			RTIB			RANK			RHEE			RTOE			*39			*40			*41			*42			*43			*44			
		X1	Y1	Z1	X2	Y2	Z2	X3	Y3	Z3	X4	Y4	Z4	X5	Y5	Z5	X6	Y6	Z6	X7	Y7	Z7	X8	Y8	Z8	X9	Y9	Z9	X10	Y10	Z10	X11	Y11	Z11	X12	Y12	Z12	X13	Y13	Z13	X14	Y14	Z14	X15	Y15	Z15	X16	Y16	Z16	X17	Y17	Z17	X18	Y18	Z18	X19	Y19	Z19	X20	Y20	Z20	X21	Y21	Z21	X22	Y22	Z22	X23	Y23	Z23	X24	Y24	Z24	X25	Y25	Z25	X26	Y26	Z26	X27	Y27	Z27	X28	Y28	Z28	X29	Y29	Z29	X30	Y30	Z30	X31	Y31	Z31	X32	Y32	Z32	X33	Y33	Z33	X34	Y34	Z34	X35	Y35	Z35	X36	Y36	Z36	X37	Y37	Z37	X38	Y38	Z38	X39	Y39	Z39	X40	Y40	Z40	X41	Y41	Z41	X42	Y42	Z42	X43	Y43	Z43	X44	Y44	Z44	X45	Y45	Z45	

159	1.580	-926.89313	-109.17264	1618.83301	-1059.97961	-107.16049	1623.91333	-930.83289	14.59622	1564.50439	-1061.36462	11.76752	1569.52332	-991.73096	34.74899	1412.09009	-998.93280	72.58469	1100.13977	-989.38928	-86.09769	1333.49475	-986.64661	-125.68613	1168.15808	-1093.62891	87.73683	1241.93311	-833.42603	-37.64034	1368.69690	-773.23737	-9.19894	1168.23181	-768.03217	-1.34523	1044.73572	-769.86389	-9.98658	914.44299	-802.76105	-15.16867	794.96490	-753.40405	11.90067	802.58173	-768.29895	14.66076	716.76471	-1150.21655	-49.71906	1359.75244	-1220.66174	-64.38624	1137.68689	-1230.62695	-91.04772	1027.73596	-1225.69495	-127.98542	896.08350	-1183.29724	-169.49847	808.52478	-1229.35876	-143.49602	797.28534	-1215.04578	-178.53711	732.56702	-879.11517	-95.47876	939.08960	-1116.61877	-95.04916	929.24274	-928.58954	66.51048	961.58057	-1078.60144	63.80792	965.86218	-837.49066	-74.52045	638.38873	-878.63330	-118.33106	466.01868	-876.40503	-104.49248	272.31818	-913.56555	-135.53792	63.60461	-952.72491	-100.68491	28.63236	-935.35260	-290.14825	32.65889	-1156.76257	-3.29857	636.98700	-1129.61877	13.84896	457.19577	-1134.43286	145.47928	310.79355	-1091.30847	277.07455	137.67462	-1040.55212	330.62091	134.07170	-1063.50732	179.18968	30.17815	-976.12408	-22.56854	1675.02148															 
160	1.590	-925.76758	-117.07219	1619.67798	-1058.82727	-114.64262	1624.87939	-929.38312	6.96024	1565.75671	-1060.29614	4.45096	1570.94336	-990.04547	27.26977	1412.93030	-997.45142	64.56659	1100.98132	-988.36908	-93.85039	1334.74512	-985.84528	-133.83214	1169.51880	-1092.27368	79.96597	1242.90222	-832.33490	-46.14635	1369.94788	-771.68549	-18.80128	1169.56738	-766.38422	-10.88078	1045.92395	-768.57648	-20.85251	915.77374	-801.16943	-26.53326	796.54846	-751.93903	0.26278	803.79456	-767.23700	3.76455	717.85846	-1148.93152	-56.76770	1361.33411	-1219.34558	-69.98128	1139.08264	-1229.19092	-95.41782	1028.75952	-1224.72949	-131.01064	896.84088	-1182.68921	-171.98904	808.69177	-1228.53674	-145.44821	797.79181	-1214.37598	-179.54982	732.38831	-877.54681	-103.82068	940.22339	-1115.19446	-102.98626	930.40326	-927.39655	58.37226	962.86401	-1077.29529	55.70855	966.96210	-836.92944	-79.34692	638.92426	-877.64545	-121.50851	465.98508	-876.12396	-106.06084	272.51401	-913.72119	-135.84729	63.67607	-952.76788	-100.67689	28.62618	-935.39471	-290.34262	32.41072	-1156.41431	-14.06291	636.95825	-1130.32520	0.21520	456.77390	-1134.99390	134.22107	313.20584	-1091.48340	269.90979	143.14581	-1040.28528	322.78445	141.85599	-1063.28259	178.05228	30.31776	-972.50226	-28.41107	1675.04810															 
161	1.600	-924.65057	-124.89794	1620.37854	-1057.69910	-122.05906	1625.62964	-927.90765	-0.75923	1566.82117	-1058.81995	-2.81983	1572.04016	-988.71490	19.97783	1413.51013	-995.80951	56.61229	1101.66223	-987.39575	-101.44789	1335.75989	-985.04663	-141.81992	1170.67944	-1090.94727	72.28004	1243.61292	-831.26691	-54.47124	1370.95386	-770.06970	-28.20259	1170.66003	-764.93872	-21.50419	1046.96924	-767.19342	-31.82857	916.90759	-799.82379	-38.24305	797.76923	-750.37878	-11.75357	804.76093	-765.94159	-7.81129	718.73505	-1147.64783	-63.74523	1362.58154	-1218.12427	-75.53413	1140.20300	-1228.17725	-99.75209	1029.71985	-1223.84729	-133.97125	897.31024	-1182.24060	-174.49519	808.69049	-1227.83105	-147.37929	798.10541	-1213.88281	-180.61804	732.08295	-876.45361	-111.48669	940.86414	-1113.77600	-110.50297	931.26251	-926.09027	50.22356	963.91656	-1075.89526	47.87693	967.81744	-836.19293	-84.38987	639.42566	-876.93390	-124.75751	465.78769	-875.90363	-107.87169	272.71167	-913.38580	-135.60748	63.94620	-952.93542	-100.78236	28.62493	-935.53046	-290.60007	32.18036	-1156.15869	-24.97921	636.73102	-1131.22131	-13.94865	456.23569	-1135.33752	122.94948	315.19095	-1091.72571	261.86063	148.42952	-1040.00806	313.99371	149.51387	-1062.94470	176.64998	30.47286	-973.71552	-37.84531	1677.40381															 
162	1.610	-923.59528	-132.66913	1620.74622	-1056.59851	-129.42731	1626.18921	-926.49426	-8.42057	1567.66028	-1057.10400	-10.03688	1572.88818	-987.16467	12.68587	1413.99390	-994.06146	48.67961	1102.11108	-986.43384	-108.93179	1336.53748	-984.27020	-149.73955	1171.58337	-1089.53259	64.80536	1244.06799	-830.19806	-62.76875	1371.68091	-768.44281	-37.60349	1171.55334	-763.17261	-31.76165	1047.72888	-765.92920	-43.04960	917.76196	-798.95062	-49.75933	798.38580	-748.73938	-24.02920	805.45300	-764.53979	-20.00243	719.32751	-1146.43506	-70.60838	1363.59375	-1216.98376	-81.08466	1141.08105	-1227.09949	-104.18806	1030.35205	-1223.12024	-137.07480	897.60748	-1181.85303	-177.13356	808.48645	-1227.28564	-149.51393	798.24713	-1213.46716	-181.81773	731.62653	-875.21112	-119.26540	941.22272	-1112.49182	-117.65491	931.85968	-924.55853	42.16448	964.67218	-1074.36768	40.38134	968.35382	-835.06927	-89.55482	639.84265	-876.20343	-128.18369	465.72031	-875.60138	-109.81597	272.82806	-913.82526	-136.12054	63.88060	-953.12793	-100.86090	28.62623	-935.66968	-290.80948	31.87332	-1156.17456	-35.84725	636.36279	-1131.97644	-28.46010	455.50378	-1135.58850	110.72095	317.04276	-1092.06799	252.76387	153.38733	-1039.92041	304.24829	157.13470	-1062.58716	175.04208	30.58938	-972.02893	-45.91776	1677.96899															 
163	1.620	-922.59448	-140.39143	1620.96912	-1055.56580	-136.76921	1626.55249	-925.13757	-15.96550	1568.20740	-1055.80176	-17.25020	1573.60217	-985.40192	5.30610	1414.20715	-992.27649	40.84562	1102.28528	-985.46326	-116.29448	1337.06213	-983.53259	-157.63226	1172.19897	-1088.01672	57.43382	1244.23059	-829.13959	-70.87585	1372.10925	-766.72321	-47.08493	1172.08118	-761.38080	-41.89444	1048.27722	-764.37195	-54.31483	918.32410	-797.55011	-61.68876	799.02765	-747.04968	-36.50453	805.86078	-762.96869	-32.85739	719.71289	-1145.26099	-77.34507	1364.30334	-1215.92334	-86.67598	1141.66541	-1226.17712	-108.70858	1030.73926	-1222.49817	-140.27867	897.62854	-1181.70642	-179.87578	808.03839	-1226.83325	-151.67502	798.06500	-1213.23999	-183.21094	731.01306	-874.08112	-127.04608	941.33685	-1111.34277	-124.51463	932.03900	-922.99329	34.37719	965.20831	-1072.86951	33.08762	968.57056	-833.71649	-94.84158	640.17529	-875.48059	-131.68532	465.64407	-875.31384	-111.92986	272.96390	-914.01068	-136.48265	63.92907	-953.27972	-100.92193	28.62327	-935.85864	-291.10934	31.66080	-1155.75940	-47.47726	635.38037	-1132.56299	-42.99241	454.69504	-1135.80713	97.98951	318.83447	-1092.61169	242.90242	157.97517	-1040.16504	293.72168	164.76964	-1061.83167	173.80394	30.54003	-970.60229	-53.79354	1678.62634															 
164	1.630	-921.60626	-147.99019	1621.00012	-1054.58459	-144.00960	1626.69446	-923.85663	-23.49004	1568.54370	-1054.71094	-24.31057	1574.09375	-984.11749	-1.76783	1414.29810	-990.60638	33.13149	1102.22241	-984.55750	-123.56686	1337.35059	-982.80414	-165.31889	1172.58386	-1086.38806	50.26257	1244.11389	-828.15961	-78.83669	1372.32190	-765.08240	-56.50184	1172.26709	-759.37708	-51.96553	1048.43738	-762.76654	-65.87865	918.67871	-795.60400	-74.22901	799.71686	-745.26172	-49.31261	805.98944	-761.27094	-46.29720	719.78320	-1144.10559	-83.93555	1364.63757	-1214.93958	-92.28519	1141.95337	-1225.31287	-113.33635	1030.82739	-1222.00000	-143.68167	897.37671	-1181.51807	-182.56615	807.28967	-1226.43909	-154.01402	797.62689	-1213.08838	-184.80981	730.21356	-873.04742	-134.62898	941.37622	-1110.34900	-131.73479	932.13538	-921.57385	26.81038	965.66925	-1071.38623	25.99806	968.40173	-832.37494	-100.20797	640.49487	-874.69806	-135.36943	465.64932	-874.73846	-114.17227	273.06808	-914.55353	-136.99426	63.59859	-953.45691	-101.06101	28.59593	-936.05383	-291.39441	31.34179	-1155.59436	-58.58441	634.55463	-1133.01208	-57.68917	453.85428	-1136.27112	84.73612	320.33588	-1093.26563	232.08871	162.01291	-1040.94690	282.48920	172.48572	-1061.46619	172.17265	30.92480	-969.01215	-61.65044	1678.60022															 
165	1.640	-920.71124	-155.55817	1620.89148	-1053.63977	-151.19272	1626.69617	-922.58380	-30.95223	1568.66187	-1053.46155	-31.39294	1574.32666	-982.45734	-8.80620	1414.23938	-989.11926	25.48878	1102.01160	-983.71173	-130.68358	1337.43762	-982.11395	-172.94633	1172.78638	-1084.66931	43.33040	1243.76282	-827.13147	-86.64576	1372.14819	-763.49127	-65.89142	1172.19019	-757.69635	-62.57122	1048.28674	-761.07715	-77.50686	918.74768	-794.03406	-86.86131	799.94080	-743.44696	-62.45866	805.83594	-759.48175	-60.25364	719.65302	-1143.11133	-90.43868	1364.71680	-1213.99988	-97.90309	1141.95557	-1224.40332	-118.15627	1030.58923	-1221.47803	-147.19437	896.91937	-1181.39014	-185.46960	806.49225	-1226.19641	-156.52171	797.22021	-1213.05920	-186.70064	729.32947	-872.13715	-142.06404	941.32416	-1109.48181	-139.34868	932.38727	-920.28619	19.45588	966.05756	-1070.00830	19.10686	967.93549	-831.13177	-105.65797	640.77893	-873.85071	-139.15628	465.61871	-874.08905	-116.41290	273.14929	-914.65527	-137.30209	63.57874	-953.39679	-101.09841	28.80233	-936.18817	-291.66208	31.18094	-1155.37427	-69.51098	633.61469	-1133.41882	-72.34274	453.07291	-1136.65784	71.08965	321.53238	-1094.26123	220.93265	165.69606	-1042.12146	270.51657	180.17200	-1061.19421	170.07654	32.01031	-967.96417	-69.10319	1678.88965															 
166	1.650	-919.87354	-163.09694	1620.66931	-1052.78784	-158.33307	1626.60242	-921.44354	-38.31023	1568.67175	-1052.25684	-38.43365	1574.42053	-981.29944	-15.72597	1414.02576	-987.85101	18.08614	1101.69006	-982.85461	-137.74144	1337.46106	-981.45142	-180.40350	1172.82190	-1082.84949	36.64597	1243.22253	-826.14215	-94.27627	1371.76709	-761.91321	-75.35732	1171.81372	-755.78345	-73.08609	1047.97266	-759.39313	-89.30962	918.55634	-792.32971	-99.90473	800.05176	-741.60992	-75.71648	805.52228	-757.52930	-74.88577	719.38538	-1142.18872	-96.71986	1364.67297	-1213.12524	-103.40366	1141.77173	-1223.83008	-122.98149	1030.28345	-1221.04199	-150.88760	896.30969	-1181.06763	-188.33434	805.31232	-1226.03101	-159.31474	796.57416	-1213.12634	-188.91739	728.32581	-871.23090	-149.43791	941.41541	-1108.69812	-146.13582	931.92389	-919.17017	12.39691	966.45880	-1068.83911	12.37154	967.16071	-830.00861	-111.33248	641.09180	-873.04553	-143.08121	465.66461	-873.43219	-118.71577	273.21979	-914.48126	-137.20731	63.79427	-953.63165	-100.81229	28.94863	-936.24561	-291.86633	30.97014	-1155.09973	-80.27905	632.64606	-1133.55127	-86.79764	452.41190	-1137.08118	56.95526	322.40076	-1095.27197	209.60684	169.53792	-1043.46606	258.18805	187.62500	-1061.04834	166.29132	34.06578	-967.17194	-76.11197	1679.38062															 
167	1.660	-919.09662	-170.61177	1620.45239	-1051.99036	-165.42195	1626.45386	-920.31787	-45.76107	1568.66431	-1051.16846	-45.43750	1574.46326	-979.96338	-22.55816	1413.96777	-986.79346	10.73784	1101.27795	-982.07739	-144.62529	1337.35962	-980.83521	-187.58421	1172.77954	-1080.98657	30.05462	1242.55151	-825.19336	-101.78525	1371.22937	-760.46497	-84.77287	1171.29138	-753.91119	-83.55833	1047.39063	-757.74579	-101.24884	918.22968	-790.97058	-112.51401	799.83868	-739.75507	-89.34489	805.07233	-755.54315	-89.99038	719.04230	-1141.32214	-102.99241	1364.03638	-1212.37134	-108.91908	1141.29565	-1223.14380	-127.96825	1029.73755	-1220.62634	-154.75679	895.54840	-1180.95764	-191.39305	804.12329	-1225.87598	-162.35097	795.75293	-1213.24304	-191.39629	727.29974	-870.41315	-156.61642	941.58636	-1107.95740	-152.77299	931.25671	-918.24353	5.46183	966.73651	-1067.82483	5.60626	966.24701	-829.18579	-117.10095	641.51807	-872.29858	-146.97078	465.84662	-872.81232	-120.94873	273.30566	-914.54572	-137.32393	63.78429	-953.68805	-100.82647	28.94638	-936.27307	-292.01910	30.83325	-1154.71924	-90.90786	631.76514	-1133.56091	-101.18785	451.83063	-1137.52905	42.43713	322.95663	-1095.85474	198.18134	173.42094	-1043.94214	245.73059	193.82503	-1062.04065	159.96768	36.94428	-965.91669	-83.85944	1678.90247															 
